<?xml version="1.0" encoding="UTF-8"?>
<svg id="Vrstva_1" xmlns="http://www.w3.org/2000/svg" version="1.1" viewBox="0 0 575.5 559.1">
  <!-- Generator: Adobe Illustrator 30.0.0, SVG Export Plug-In . SVG Version: 2.1.1 Build 123)  -->
  <defs>
    <style>
      .st0 {
        fill: #de7d2d;
      }

      .st1 {
        fill: #343e3e;
      }
    </style>
  </defs>
  <g id="_x38_iLfXt">
    <polygon class="st1" points="284 420.3 173.8 261 273.5 139 205.5 139 103.4 264.1 103.4 139 46.6 139 46.6 420.3 103.4 420.3 103.4 347.2 136 307.3 214.2 420.3 284 420.3"/>
    <path class="st1" d="M414.5,188.6h-121.8v-49.6h112.8c-5.1,26.9,9,49.6,9,49.6Z"/>
    <polygon class="st1" points="503.4 420.3 339.4 420.3 404.1 370.6 503.4 370.6 503.4 420.3"/>
    <path class="st0" d="M375.5,219.6c13.1,5.8,103.7,41.5,116.5,46.7,12.8,5.2,14.2,18.3,4.7,25.6s-163.3,117.6-172,123.5-29.6,5.5-24.1-15.7c5.5-21.2,49.2-158.9,52.9-170.9,3.7-12.1,22-9.1,22-9.1Z"/>
    <path class="st1" d="M518.8,45.5l-3.6-2.6c-10.9-7.7-26-5.2-33.7,5.6l-41.1,57.6s-2.4,3.3-5.8,8.1l-7.6,10.6c-1.3,1.8-2.3,3.7-3,5.7-4.5,7.5-8.2,14.9-8.3,19.1-.4,10.8,11.3,27.4,12.1,33.2.5,3.6-.8,7-1.9,9.1l-29.2,50.6c-4.3,7.5-1.8,17.1,5.7,21.4s17.1,1.8,21.4-5.7l35-60.7c2.8-4.9,2.7-10.7.2-15.3,0-.2-.1-.3-.2-.5,0,0,0,0,0,0-.1-.2-.2-.4-.4-.6-2.8-4.8.9-10.9,10.5-24.2.4-.5.8-1,1.1-1.5l54.5-76.4c7.7-10.9,5.2-26-5.6-33.7Z"/>
    <g>
      <path class="st1" d="M46.6,500.2v-54.5h12.6c9.2,0,13.8,5.3,13.8,16s-.5,5.9-1.5,8.2c-1,2.2-2.7,4.1-5.2,5.4l8.4,24.9h-8.3l-7.3-23.3h-4.7v23.3h-7.8ZM54.4,453v17h4.4c1.4,0,2.5-.2,3.3-.6.8-.4,1.5-.9,1.9-1.6.4-.7.7-1.6.8-2.6.2-1,.2-2.3.2-3.6s0-2.6-.2-3.6c-.2-1-.5-2-.9-2.7-1-1.4-2.8-2.1-5.5-2.1h-4.1Z"/>
      <path class="st1" d="M87.2,500.2v-54.5h23.3v7.3h-15.5v16h13.5v7.3h-13.5v16h15.5v7.8h-23.3Z"/>
      <path class="st1" d="M123.6,500.2v-54.5h7.8v24.9h.2l11.4-24.9h7.8l-10.6,21.8,12.6,32.7h-8.3l-8.9-24.2-4.2,7.9v16.3h-7.8Z"/>
      <path class="st1" d="M162.8,458.6c0-2.2.4-4.1,1.1-5.8s1.8-3.1,3.1-4.2c1.2-1.1,2.6-1.9,4.2-2.4,1.6-.6,3.1-.8,4.7-.8s3.2.3,4.7.8c1.6.6,3,1.4,4.2,2.4,1.2,1.1,2.2,2.5,3,4.2s1.1,3.6,1.1,5.8v28.8c0,2.3-.4,4.3-1.1,5.9-.8,1.6-1.8,3-3,4.1-1.3,1.1-2.7,2-4.2,2.5-1.6.6-3.1.8-4.7.8s-3.2-.3-4.7-.8c-1.6-.6-2.9-1.4-4.2-2.5-1.3-1.1-2.3-2.4-3.1-4.1-.8-1.6-1.1-3.6-1.1-5.9v-28.8ZM170.6,487.3c0,1.9.5,3.3,1.6,4.2,1,.9,2.3,1.3,3.7,1.3s2.7-.4,3.7-1.3c1-.9,1.6-2.3,1.6-4.2v-28.8c0-1.9-.5-3.3-1.6-4.2-1-.9-2.3-1.3-3.7-1.3s-2.7.4-3.7,1.3c-1,.9-1.6,2.3-1.6,4.2v28.8Z"/>
      <path class="st1" d="M203.6,500.2v-54.5h7.5l11.8,32.8h.2v-32.8h7.8v54.5h-7.3l-11.9-32.8h-.2v32.8h-7.8Z"/>
      <path class="st1" d="M271.2,461.4h-7.8v-1.8c0-1.8-.4-3.3-1.3-4.6-.8-1.3-2.3-2-4.2-2s-1.9.2-2.6.6c-.7.4-1.2.9-1.6,1.5-.4.7-.7,1.4-.8,2.3-.2.8-.2,1.7-.2,2.6s0,2,.1,2.7c0,.7.3,1.4.6,1.9.3.6.8,1,1.3,1.5.6.4,1.4.8,2.4,1.2l6,2.4c1.7.7,3.1,1.4,4.2,2.3,1.1.9,1.9,1.9,2.5,3.1.6,1.2.9,2.6,1.1,4.2.2,1.6.3,3.3.3,5.3s-.2,4.4-.7,6.4c-.5,2-1.2,3.6-2.2,5-1.1,1.4-2.5,2.6-4.2,3.4-1.7.8-3.9,1.2-6.4,1.2s-3.6-.3-5.3-1c-1.6-.7-3-1.6-4.2-2.8-1.2-1.2-2.1-2.5-2.8-4.1-.7-1.6-1-3.3-1-5.1v-2.9h7.8v2.4c0,1.4.4,2.7,1.3,3.9.8,1.1,2.3,1.7,4.2,1.7s2.4-.2,3.1-.6c.7-.4,1.3-.9,1.7-1.6.4-.7.7-1.6.7-2.6,0-1,.1-2.1.1-3.3s0-2.6-.2-3.5c-.1-.9-.3-1.7-.6-2.2-.4-.6-.8-1-1.4-1.4-.6-.4-1.4-.7-2.3-1.1l-5.6-2.3c-3.4-1.4-5.6-3.2-6.8-5.5-1.1-2.3-1.7-5.1-1.7-8.5s.3-4,.8-5.8c.6-1.8,1.4-3.4,2.5-4.7,1.1-1.3,2.4-2.4,4.1-3.2,1.7-.8,3.6-1.2,5.9-1.2s3.7.4,5.3,1.1c1.6.7,3,1.7,4.2,2.8,2.3,2.4,3.5,5.3,3.5,8.4v3.8Z"/>
      <path class="st1" d="M290.2,500.2v-47.2h-9v-7.3h25.9v7.3h-9v47.2h-7.8Z"/>
      <path class="st1" d="M318.5,500.2v-54.5h12.6c9.2,0,13.8,5.3,13.8,16s-.5,5.9-1.5,8.2c-1,2.2-2.7,4.1-5.2,5.4l8.4,24.9h-8.3l-7.3-23.3h-4.7v23.3h-7.8ZM326.3,453v17h4.4c1.4,0,2.5-.2,3.3-.6.8-.4,1.5-.9,1.9-1.6.4-.7.7-1.6.8-2.6.2-1,.2-2.3.2-3.6s0-2.6-.2-3.6c-.2-1-.5-2-.9-2.7-1-1.4-2.8-2.1-5.5-2.1h-4.1Z"/>
      <path class="st1" d="M384.4,445.7v42.3c0,1.8-.3,3.4-1,4.9-.6,1.5-1.5,2.8-2.7,4s-2.5,2.1-4.1,2.8c-1.5.7-3.2,1-4.9,1s-3.4-.3-4.9-1c-1.5-.7-2.8-1.6-4-2.8-1.2-1.2-2.1-2.5-2.8-4-.7-1.5-1-3.2-1-4.9v-42.3h7.8v41.5c0,1.9.5,3.4,1.4,4.3s2.1,1.4,3.4,1.4,2.5-.5,3.4-1.4c.9-.9,1.4-2.3,1.4-4.3v-41.5h7.8Z"/>
      <path class="st1" d="M399.8,500.2v-54.5h7.8v24.9h.2l11.4-24.9h7.8l-10.6,21.8,12.6,32.7h-8.3l-8.9-24.2-4.2,7.9v16.3h-7.8Z"/>
      <path class="st1" d="M465.3,484.7v3.4c0,1.7-.3,3.3-1,4.8-.6,1.5-1.5,2.8-2.6,4-1.1,1.2-2.4,2.1-3.9,2.8-1.5.7-3.1,1-4.9,1s-3-.2-4.5-.6c-1.5-.4-2.9-1.1-4.1-2.1-1.2-1-2.2-2.3-3-3.9-.8-1.6-1.2-3.7-1.2-6.2v-30c0-1.8.3-3.4.9-5,.6-1.5,1.5-2.9,2.6-4,1.1-1.1,2.5-2,4-2.6,1.6-.6,3.3-1,5.2-1,3.7,0,6.7,1.2,9,3.6,1.1,1.2,2,2.6,2.6,4.2.6,1.6,1,3.4,1,5.2v3.1h-7.8v-2.6c0-1.5-.4-2.9-1.3-4-.9-1.1-2-1.7-3.5-1.7s-3.2.6-3.9,1.8c-.6,1.2-1,2.7-1,4.6v27.9c0,1.6.3,2.9,1,4,.7,1.1,1.9,1.6,3.7,1.6s1.1,0,1.6-.3c.6-.2,1.1-.5,1.6-.9.5-.4.8-1,1.1-1.7.3-.7.5-1.6.5-2.7v-2.7h7.8Z"/>
      <path class="st1" d="M479.7,500.2v-54.5h23.3v7.3h-15.5v16h13.5v7.3h-13.5v16h15.5v7.8h-23.3Z"/>
    </g>
  </g>
</svg>